# xmcd
#
# Track frame offsets:
#	150
#	9000
#	17267
#	25877
#	34007
#	43742
#	50916
#	69165
#	78739
#	91308
#	101037
#	112032
#	123447
#	133394
#	141191
#
# Disc length: 2101 seconds
#
# Revision: 0
# Processed by: cddbd v1.5.2PL0 Copyright (c) Steve Scherf et al.
# Submitted via: dBpowerAMP V4.0
#
DISCID=c708330f
DTITLE=Dewey Brown - Hard Timer For A Fiddler
DYEAR=2009
DGENRE=Bluegrass
TTITLE0=Hard Times Are Here ( Featuring Ralph Stanley )
TTITLE1=Beaver Dam
TTITLE2=Let Me In Your Heart
TTITLE3=It's Two O'Clock
TTITLE4=Leslie's Home Away From Home
TTITLE5=Browns Breakdown
TTITLE6=A Maidens Love
TTITLE7=Black Mountian Blues
TTITLE8=Play The Lonesome Sound ( Featuring Del McCoury )
TTITLE9=Lost Train
TTITLE10=Cherokee Shuffle
TTITLE11=Memories
TTITLE12=Walking In My Sleep
TTITLE13=Lee Highway Blues
TTITLE14=Near My God To Thee ( Featuring Ralph Stanley ) 
EXTD=Dewey Brown - Hard Timer For A Fiddler
EXTT0=
EXTT1=
EXTT2=
EXTT3=
EXTT4=
EXTT5=
EXTT6=
EXTT7=
EXTT8=
EXTT9=
EXTT10=
EXTT11=
EXTT12=
EXTT13=
EXTT14=
PLAYORDER=
